<?xml version="1.0" standalone="no"?>
<!DOCTYPE svg PUBLIC "-//W3C//DTD SVG 20010904//EN"
 "http://www.w3.org/TR/2001/REC-SVG-20010904/DTD/svg10.dtd">
<svg version="1.0" xmlns="http://www.w3.org/2000/svg"
 width="504.000000pt" height="512.000000pt" viewBox="0 0 504.000000 512.000000"
 preserveAspectRatio="xMidYMid meet">

<g transform="translate(0.000000,512.000000) scale(0.100000,-0.100000)"
fill="#000000" stroke="none">
<path d="M51 2814 c0 -11 3 -14 6 -6 3 7 2 16 -1 19 -3 4 -6 -2 -5 -13z"/>
<path d="M837 1573 c-17 -16 -3 -23 46 -23 55 0 71 -6 80 -30 4 -12 6 -11 6 3
2 31 -35 57 -82 57 -24 0 -47 -3 -50 -7z"/>
<path d="M2703 1550 c-27 -16 -53 -47 -53 -64 0 -2 13 9 29 25 39 38 111 41
162 6 l34 -24 37 21 c21 12 38 27 38 33 0 9 -11 6 -32 -7 -34 -21 -68 -26 -68
-11 0 12 -64 41 -92 41 -12 0 -37 -9 -55 -20z"/>
<path d="M3380 1563 c-20 -7 -70 -54 -70 -66 0 -5 14 3 31 17 58 49 178 24
180 -37 l0 -22 9 21 c4 12 24 31 44 42 20 12 36 26 36 33 0 6 -20 -1 -44 -15
-39 -23 -45 -24 -57 -10 -29 35 -88 52 -129 37z"/>
<path d="M1500 1481 c0 -5 7 -11 14 -14 10 -4 13 -1 9 9 -6 15 -23 19 -23 5z"/>
<path d="M4065 1480 c-3 -5 1 -10 10 -10 9 0 13 5 10 10 -3 6 -8 10 -10 10 -2
0 -7 -4 -10 -10z"/>
<path d="M2050 1455 c0 -11 9 -26 21 -33 18 -12 19 -11 10 5 -25 44 -31 49
-31 28z"/>
<path d="M1481 1424 c0 -11 3 -14 6 -6 3 7 2 16 -1 19 -3 4 -6 -2 -5 -13z"/>
<path d="M1027 1406 c-19 -15 -26 -28 -21 -40 6 -16 7 -16 18 2 6 11 17 29 24
41 16 26 14 26 -21 -3z"/>
<path d="M2100 1380 c6 -11 13 -20 16 -20 2 0 0 9 -6 20 -6 11 -13 20 -16 20
-2 0 0 -9 6 -20z"/>
<path d="M830 1360 c0 -5 4 -10 9 -10 5 0 17 -3 25 -6 12 -5 15 -2 10 10 -7
17 -44 22 -44 6z"/>
<path d="M3430 1348 c0 -21 7 -22 39 -4 l24 13 -32 5 c-25 4 -31 1 -31 -14z"/>
<path d="M2780 1346 c0 -9 7 -12 20 -9 31 8 34 23 6 23 -16 0 -26 -6 -26 -14z"/>
<path d="M2130 1330 c6 -11 13 -20 16 -20 2 0 0 9 -6 20 -6 11 -13 20 -16 20
-2 0 0 -9 6 -20z"/>
<path d="M889 1315 c5 -11 17 -29 26 -40 l16 -20 -10 20 c-5 11 -17 29 -26 40
l-16 20 10 -20z"/>
<path d="M2566 1299 c23 -38 82 -83 131 -100 22 -7 57 -9 92 -4 31 4 89 7 130
8 41 1 76 7 78 12 2 6 -17 9 -48 6 -33 -2 -54 1 -59 9 -5 9 -19 8 -54 -4 -58
-20 -79 -20 -145 0 -37 11 -66 29 -98 60 -41 41 -43 42 -27 13z"/>
<path d="M3218 1304 c18 -34 87 -91 127 -104 24 -8 59 -10 99 -5 33 3 94 6
134 5 45 -1 72 3 72 9 0 6 -21 11 -48 11 -26 0 -52 4 -58 10 -6 6 -27 4 -59
-6 -87 -27 -164 -6 -239 65 -24 23 -35 28 -28 15z"/>
<path d="M1431 1293 c-8 -17 -2 -18 81 -15 76 3 87 6 77 18 -18 22 -145 20
-158 -3z"/>
<path d="M3991 1293 c-8 -17 -1 -18 84 -18 85 0 92 1 84 18 -8 14 -23 17 -84
17 -61 0 -76 -3 -84 -17z"/>
<path d="M2161 1280 c7 -14 21 -38 31 -53 19 -26 24 -28 81 -25 33 2 62 8 64
13 2 6 -21 9 -61 7 -67 -4 -67 -4 -114 64 -10 16 -11 15 -1 -6z"/>
<path d="M942 1230 c13 -22 24 -25 77 -28 38 -2 61 1 61 8 0 6 -24 10 -57 10
-39 0 -63 5 -77 18 -20 17 -20 17 -4 -8z"/>
<path d="M1619 1223 c10 -20 20 -23 66 -23 30 0 55 5 55 10 0 6 -24 10 -53 10
-29 0 -59 6 -66 13 -11 10 -11 8 -2 -10z"/>
<path d="M3908 1223 c-73 -5 -76 -23 -4 -23 39 0 55 4 60 15 3 8 4 14 3 13 -1
-1 -28 -3 -59 -5z"/>
<path d="M4187 1213 c6 -15 113 -18 113 -4 0 5 -26 11 -59 13 -44 2 -57 0 -54
-9z"/>
<path d="M720 1210 c0 -5 23 -10 50 -10 28 0 50 5 50 10 0 6 -22 10 -50 10
-27 0 -50 -4 -50 -10z"/>
<path d="M1290 1210 c0 -5 25 -10 55 -10 30 0 55 5 55 10 0 6 -25 10 -55 10
-30 0 -55 -4 -55 -10z"/>
<path d="M1940 1210 c0 -5 23 -10 50 -10 28 0 50 5 50 10 0 6 -22 10 -50 10
-27 0 -50 -4 -50 -10z"/>
</g>
</svg>
